<?xml version="1.0" encoding="UTF-8" standalone="no"?>
<!DOCTYPE svg PUBLIC "-//W3C//DTD SVG 1.1//EN" "http://www.w3.org/Graphics/SVG/1.1/DTD/svg11.dtd">
<svg xmlns="http://www.w3.org/2000/svg" version="1.1" viewBox="0 0 500 500">
<g stroke-width="2.00" fill="none" stroke-linecap="butt">
<path stroke="#808080" vector-effect="non-scaling-stroke" d="
  M 179.83 136.96
  C 180.92 145.08 185.08 150.73 189.13 157.71
  C 191.99 162.64 191.36 168.92 189.96 174.17
  Q 188.75 178.67 188.91 180.03
  C 189.47 184.88 194.19 183.36 197.65 184.22
  Q 198.29 184.38 198.17 185.03
  Q 196.96 191.52 202.51 194.17
  Q 203.01 194.42 203.05 194.97
  C 203.35 199.22 206.55 200.28 210.44 201.19
  Q 210.96 201.31 211.00 201.84
  C 211.73 210.73 220.37 212.43 226.43 207.64
  C 231.33 203.76 236.64 198.01 242.95 196.95
  Q 243.51 196.86 243.61 197.42
  Q 247.09 216.00 264.03 221.85
  C 269.91 223.88 277.93 223.00 284.31 222.99
  C 293.41 222.96 300.11 228.28 303.24 236.76
  Q 303.43 237.27 303.88 237.57
  L 304.74 238.15
  A 0.84 0.84 0.0 0 0 306.04 237.47
  Q 306.11 233.86 304.35 231.08
  Q 295.99 217.86 280.01 219.68
  Q 254.80 222.56 247.47 199.33
  C 246.84 197.33 247.27 193.81 247.60 191.69
  Q 248.97 182.80 248.18 178.30
  C 245.90 165.33 231.17 166.36 224.23 156.73
  C 219.89 150.70 215.78 145.41 207.85 145.02
  C 202.36 144.74 194.46 144.80 190.95 140.31
  Q 186.92 135.15 184.50 129.66
  A 3.55 3.54 38.8 0 1 184.27 127.57
  C 192.50 85.70 237.05 75.36 269.30 96.09
  C 286.37 107.05 291.99 120.03 296.25 139.11
  A 1.05 1.05 0.0 0 0 298.01 139.63
  Q 299.34 138.35 299.06 136.75
  C 296.51 122.22 290.67 108.75 279.11 99.15
  Q 255.23 79.31 225.56 83.31
  C 201.07 86.61 184.56 103.55 180.76 127.83
  Q 180.68 128.33 180.35 128.71
  C 172.07 138.24 164.45 151.74 167.86 164.45
  Q 168.02 165.04 171.15 172.29
  C 174.00 178.89 174.66 184.57 173.31 191.67
  Q 171.80 199.54 175.06 206.67
  C 178.05 213.22 185.71 217.44 183.90 225.68
  C 182.95 230.01 180.16 233.93 181.22 238.75
  Q 182.52 244.64 182.86 249.06
  Q 182.90 249.63 183.45 249.78
  L 185.23 250.27
  Q 185.85 250.44 185.90 249.80
  C 186.43 243.81 183.19 236.80 185.88 231.23
  C 193.20 216.07 177.59 211.56 176.15 198.70
  C 175.85 196.02 176.68 193.66 177.31 191.07
  C 178.85 184.71 177.50 177.82 174.90 171.90
  C 173.48 168.64 171.74 165.20 171.20 161.86
  C 169.69 152.37 173.72 144.46 178.69 136.71
  Q 179.60 135.28 179.83 136.96"
/>
<path stroke="#808080" vector-effect="non-scaling-stroke" d="
  M 245.60 122.14
  Q 238.02 119.36 230.57 120.14
  C 222.85 120.94 198.58 124.86 193.84 118.46
  C 192.91 117.19 191.79 116.24 190.41 117.52
  A 1.82 1.81 -43.4 0 0 190.33 120.11
  C 194.04 123.99 196.66 124.93 202.35 125.09
  C 214.59 125.42 223.83 123.87 234.66 123.73
  C 238.16 123.69 241.53 124.47 245.03 125.12
  Q 245.70 125.24 245.80 124.57
  L 246.05 122.91
  A 0.70 0.70 0.0 0 0 245.60 122.14"
/>
<path stroke="#808080" vector-effect="non-scaling-stroke" d="
  M 236.42 140.35
  Q 226.98 137.70 217.19 137.12
  C 205.83 136.45 195.49 134.58 189.83 123.41
  A 0.98 0.98 0.0 0 0 188.75 122.89
  C 187.09 123.23 186.74 124.95 187.47 126.37
  C 193.76 138.62 206.72 140.06 219.45 140.98
  C 225.39 141.41 230.37 142.43 235.82 143.70
  Q 236.43 143.84 236.57 143.24
  L 237.02 141.37
  Q 237.22 140.57 236.42 140.35"
/>
<path stroke="#808080" vector-effect="non-scaling-stroke" d="
  M 274.88 187.97
  Q 272.26 189.35 271.07 191.99
  Q 270.84 192.52 271.02 193.06
  C 271.66 194.93 272.80 194.71 273.95 193.45
  Q 277.62 189.46 283.10 188.75
  Q 283.63 188.68 283.71 189.21
  L 284.04 191.38
  Q 284.13 192.01 284.76 192.01
  C 289.89 191.99 296.38 192.60 300.83 191.10
  C 308.18 188.62 313.93 180.21 318.96 174.47
  Q 319.30 174.09 319.80 174.07
  Q 326.22 173.89 332.62 173.39
  C 338.22 172.94 345.77 173.20 352.37 172.03
  Q 353.02 171.91 353.01 171.25
  L 352.98 169.48
  Q 352.97 168.92 352.41 168.95
  L 320.46 170.65
  Q 320.00 170.68 320.00 170.22
  L 320.00 167.56
  Q 320.00 166.88 319.32 166.85
  L 317.43 166.78
  Q 316.61 166.75 316.62 167.57
  L 316.65 170.59
  Q 316.65 171.04 316.38 171.40
  C 310.57 179.21 303.74 188.60 294.57 188.52
  Q 294.03 188.51 294.03 187.97
  L 293.99 151.62
  Q 293.99 151.00 293.37 151.00
  L 291.62 151.00
  Q 291.00 151.00 291.00 151.62
  L 291.00 188.09
  Q 291.00 188.68 290.41 188.70
  L 287.65 188.77
  Q 287.00 188.79 287.00 188.14
  L 287.00 145.98
  Q 287.00 145.36 287.62 145.36
  C 293.96 145.37 300.41 144.72 305.15 149.60
  Q 311.00 155.64 316.42 162.08
  C 318.03 163.98 333.83 163.97 335.51 164.01
  C 340.99 164.14 346.60 164.83 352.19 164.86
  Q 352.78 164.86 352.92 164.28
  Q 353.59 161.54 351.23 161.41
  Q 335.47 160.53 319.57 159.78
  Q 319.06 159.76 318.75 159.36
  Q 313.51 152.54 307.36 146.56
  C 300.90 140.27 292.46 141.99 284.61 142.00
  Q 284.13 142.01 284.05 142.48
  L 283.71 144.45
  Q 283.64 144.91 283.18 144.93
  Q 274.88 145.43 268.46 140.45
  Q 267.91 140.03 267.53 140.61
  Q 266.57 142.08 267.23 143.78
  Q 267.39 144.18 267.78 144.38
  L 269.45 145.25
  Q 270.87 146.00 269.27 146.00
  L 260.03 146.01
  A 2.03 2.02 -0.0 0 0 258.00 148.03
  L 258.00 157.22
  Q 258.00 157.79 258.44 158.13
  L 260.88 160.06
  Q 261.34 160.42 260.89 160.80
  L 258.43 162.87
  Q 258.00 163.23 258.00 163.79
  L 258.00 177.09
  Q 258.00 177.77 258.65 177.95
  L 259.46 178.18
  Q 260.50 178.47 259.60 179.06
  L 258.50 179.79
  Q 258.06 180.08 258.06 180.61
  L 257.97 186.70
  Q 257.96 187.50 258.76 187.50
  L 274.76 187.50
  Q 275.77 187.50 274.88 187.97"
/>
<path stroke="#808080" vector-effect="non-scaling-stroke" d="
  M 145.46 316.19
  C 147.83 321.01 151.65 329.42 142.44 330.34
  Q 138.88 330.70 142.50 330.81
  Q 153.88 331.15 165.28 330.96
  Q 167.08 330.93 165.37 330.35
  Q 161.13 328.91 159.87 326.02
  Q 153.02 310.21 135.78 265.26
  Q 135.54 264.64 134.98 265.00
  L 125.91 270.92
  Q 125.43 271.24 125.48 271.81
  Q 125.63 273.49 125.21 274.48
  Q 119.01 289.29 104.40 322.41
  Q 101.78 328.36 97.06 330.67
  Q 96.80 330.80 97.09 330.82
  Q 104.70 331.25 112.29 330.82
  Q 114.99 330.66 112.32 330.22
  Q 109.86 329.81 107.71 328.55
  Q 107.24 328.27 107.01 327.77
  C 105.41 324.41 107.89 319.12 109.51 316.18
  Q 109.75 315.75 110.25 315.75
  L 144.75 315.75
  Q 145.24 315.75 145.46 316.19"
/>
<path stroke="#808080" vector-effect="non-scaling-stroke" d="
  M 314.94 316.17
  Q 317.67 321.80 317.71 325.68
  C 317.75 329.45 314.95 329.51 312.44 330.40
  Q 311.44 330.75 312.50 330.80
  Q 323.51 331.25 334.52 330.84
  A 0.41 0.41 0.0 0 0 334.57 330.02
  C 329.53 329.23 326.18 318.81 324.46 314.48
  Q 314.71 289.91 305.20 265.22
  Q 304.99 264.68 304.50 265.00
  L 295.85 270.64
  Q 295.38 270.95 295.32 271.51
  C 295.16 273.00 294.92 273.96 294.33 275.35
  Q 283.68 300.21 272.78 324.98
  Q 271.34 328.24 266.65 330.40
  Q 265.48 330.94 266.76 330.95
  L 282.35 331.02
  A 0.29 0.29 0.0 0 0 282.41 330.44
  C 272.68 328.33 275.71 322.58 279.01 316.23
  Q 279.25 315.75 279.79 315.75
  L 314.28 315.75
  Q 314.74 315.75 314.94 316.17"
/>
<path stroke="#808080" vector-effect="non-scaling-stroke" d="
  M 355.28 283.70
  C 355.83 309.76 400.93 296.85 393.94 321.63
  C 392.98 325.05 390.60 328.31 387.26 329.27
  C 374.89 332.81 360.96 325.60 361.47 311.56
  Q 361.51 310.38 360.88 311.38
  L 353.66 322.92
  Q 353.24 323.59 353.87 324.07
  Q 363.72 331.61 375.63 331.92
  C 385.45 332.18 397.77 329.17 401.07 318.52
  C 405.18 305.25 394.97 297.71 383.66 294.92
  C 374.11 292.56 361.71 289.73 362.88 277.12
  C 363.35 271.92 366.37 267.99 371.66 267.40
  Q 386.74 265.71 392.01 279.03
  C 392.79 281.00 392.62 283.71 392.75 285.89
  Q 392.79 286.73 393.24 286.02
  L 400.68 274.18
  Q 401.03 273.62 400.52 273.21
  Q 387.52 262.61 370.00 266.54
  C 361.21 268.52 355.08 274.43 355.28 283.70"
/>
<path stroke="#808080" vector-effect="non-scaling-stroke" d="
  M 217.68 324.35
  Q 217.28 325.25 216.92 324.34
  Q 207.60 301.13 198.55 278.62
  C 196.77 274.19 195.98 267.82 202.53 267.82
  Q 202.64 267.82 202.68 267.72
  Q 202.74 267.54 202.80 267.35
  Q 202.87 267.11 202.63 267.11
  L 183.00 266.95
  Q 182.02 266.94 182.61 267.72
  C 183.91 269.41 185.09 270.89 185.90 272.82
  Q 198.34 302.79 210.16 333.01
  Q 210.34 333.47 210.75 333.20
  C 213.73 331.24 217.94 328.90 219.41 325.48
  Q 229.03 303.11 238.68 280.76
  C 241.57 274.06 242.72 270.47 247.98 267.40
  Q 248.36 267.18 247.92 267.16
  Q 240.23 266.82 232.54 267.09
  Q 231.33 267.13 232.48 267.52
  L 237.29 269.14
  Q 237.75 269.29 237.99 269.71
  Q 239.87 272.94 238.33 276.53
  Q 227.94 300.76 217.68 324.35"
/>
<path stroke="#808080" vector-effect="non-scaling-stroke" d="
  M 179.36 379.35
  C 166.28 387.40 163.76 363.21 179.57 370.58
  Q 180.10 370.82 180.49 370.39
  L 181.45 369.31
  Q 181.93 368.79 181.35 368.37
  Q 176.54 364.85 171.48 366.44
  C 157.81 370.73 167.35 390.44 180.79 382.05
  Q 181.94 381.33 181.00 379.75
  A 1.18 1.18 0.0 0 0 179.36 379.35"
/>
<path stroke="#808080" vector-effect="non-scaling-stroke" d="
  M 215.2899 375.0517
  A 9.88 9.07 0.3 0 0 205.4575 365.9301
  A 9.88 9.07 0.3 0 0 195.5301 374.9483
  A 9.88 9.07 0.3 0 0 205.3625 384.0699
  A 9.88 9.07 0.3 0 0 215.2899 375.0517"
/>
<path stroke="#808080" vector-effect="non-scaling-stroke" d="
  M 234.35 381.20
  A 0.60 0.60 0.0 0 1 233.75 380.60
  L 233.75 366.60
  A 0.60 0.60 0.0 0 0 233.15 366.00
  L 231.08 366.00
  A 0.60 0.60 0.0 0 0 230.48 366.60
  L 230.49 383.40
  A 0.60 0.60 0.0 0 0 231.09 384.00
  L 242.90 384.00
  A 0.60 0.60 0.0 0 0 243.50 383.40
  L 243.50 381.88
  A 0.60 0.60 0.0 0 0 242.90 381.28
  L 234.35 381.20"
/>
<path stroke="#808080" vector-effect="non-scaling-stroke" d="
  M 276.3095 375.1134
  A 9.87 9.06 0.6 0 0 266.5349 365.9505
  A 9.87 9.06 0.6 0 0 256.5705 374.9066
  A 9.87 9.06 0.6 0 0 266.3451 384.0695
  A 9.87 9.06 0.6 0 0 276.3095 375.1134"
/>
<path stroke="#808080" vector-effect="non-scaling-stroke" d="
  M 299.97 379.20
  C 301.41 381.50 302.90 385.13 306.32 383.75
  Q 306.89 383.52 306.51 383.03
  L 303.27 378.81
  Q 302.92 378.36 303.40 378.06
  C 306.64 376.01 307.70 372.33 305.79 369.00
  C 303.69 365.36 296.37 365.67 291.75 366.20
  Q 291.21 366.26 291.21 366.81
  L 291.34 383.30
  Q 291.34 384.02 292.05 384.01
  L 294.12 383.98
  Q 294.72 383.98 294.74 383.38
  L 294.86 379.31
  Q 294.88 378.75 295.44 378.75
  L 299.16 378.75
  Q 299.69 378.75 299.97 379.20"
/>
<path stroke="#808080" vector-effect="non-scaling-stroke" d="
  M 322.39 374.41
  C 324.68 375.61 332.64 376.73 331.36 379.98
  Q 331.15 380.50 330.61 380.66
  Q 326.16 381.96 322.25 379.44
  Q 321.74 379.11 321.51 379.67
  L 320.77 381.43
  Q 320.55 381.97 321.06 382.25
  C 324.73 384.24 335.17 385.47 335.25 378.99
  C 335.33 372.77 321.17 374.06 325.19 369.68
  Q 325.55 369.29 326.08 369.19
  Q 329.61 368.57 332.93 369.88
  Q 333.56 370.12 333.78 369.49
  L 334.27 368.09
  Q 334.48 367.47 333.87 367.21
  C 329.01 365.18 319.54 365.18 321.42 373.16
  Q 321.62 374.01 322.39 374.41"
/>
<path stroke="#808080" vector-effect="non-scaling-stroke" d="
  M 201.03 181.56
  Q 200.76 185.78 202.27 189.68
  Q 202.44 190.12 202.88 190.32
  L 206.37 191.85
  Q 206.92 192.09 206.94 192.69
  L 207.03 195.52
  Q 207.04 196.04 207.50 196.27
  C 211.19 198.10 215.69 197.86 215.06 203.62
  Q 215.00 204.14 215.31 204.57
  C 217.89 208.24 222.54 206.24 225.12 203.96
  C 230.52 199.23 235.88 194.39 243.32 193.39
  Q 243.79 193.32 243.85 192.85
  C 244.89 184.63 247.51 176.32 239.09 170.82
  C 234.62 167.89 229.78 166.30 225.68 163.24
  C 220.83 159.62 218.73 152.96 213.57 150.25
  C 209.15 147.93 203.83 148.19 198.97 147.73
  C 191.10 146.98 187.21 142.65 183.67 135.79
  Q 183.28 135.04 183.09 135.87
  C 182.04 140.36 188.90 151.59 191.60 155.29
  C 195.95 161.26 194.40 171.91 191.94 178.42
  A 1.35 1.34 21.2 0 0 192.71 180.15
  Q 196.30 181.56 200.05 180.72
  A 0.81 0.80 85.5 0 1 201.03 181.56"
/>
<path stroke="#808080" vector-effect="non-scaling-stroke" d="
  M 277.07 159.79
  L 277.11 161.24
  Q 277.13 161.96 276.41 162.02
  C 272.13 162.37 264.88 160.83 261.42 165.15
  Q 261.01 165.66 261.03 166.31
  L 261.35 174.99
  Q 261.37 175.62 261.95 175.88
  C 264.56 177.05 271.10 176.34 271.79 178.52
  A 1.01 1.01 0.0 0 1 270.96 179.82
  C 268.02 180.22 263.19 179.66 261.24 182.42
  A 1.00 1.00 0.0 0 0 262.05 184.00
  L 283.37 184.00
  Q 284.00 184.00 284.00 183.38
  L 284.00 150.62
  Q 284.00 150.00 283.38 150.00
  L 261.79 150.00
  Q 261.39 150.00 261.30 150.39
  C 258.66 161.32 270.61 158.74 276.40 159.08
  Q 277.06 159.12 277.07 159.79"
/>
<path stroke="#808080" vector-effect="non-scaling-stroke" d="
  M 110.68 313.23
  A 0.41 0.41 0.0 0 0 111.05 313.80
  L 144.08 314.20
  A 0.41 0.41 0.0 0 0 144.46 313.64
  L 128.43 273.76
  A 0.41 0.41 0.0 0 0 127.68 273.75
  L 110.68 313.23"
/>
<path stroke="#808080" vector-effect="non-scaling-stroke" d="
  M 280.13 313.33
  A 0.34 0.34 0.0 0 0 280.44 313.80
  L 313.69 314.21
  A 0.34 0.34 0.0 0 0 314.01 313.74
  L 297.87 273.68
  A 0.34 0.34 0.0 0 0 297.24 273.67
  L 280.13 313.33"
/>
<path stroke="#808080" vector-effect="non-scaling-stroke" d="
  M 211.6545 375.2605
  A 6.22 5.86 2.4 0 0 205.6854 369.1451
  A 6.22 5.86 2.4 0 0 199.2255 374.7395
  A 6.22 5.86 2.4 0 0 205.1946 380.8549
  A 6.22 5.86 2.4 0 0 211.6545 375.2605"
/>
<path stroke="#808080" vector-effect="non-scaling-stroke" d="
  M 272.6520 374.7053
  A 6.22 5.88 -2.9 0 0 266.1425 369.1475
  A 6.22 5.88 -2.9 0 0 260.2280 375.3347
  A 6.22 5.88 -2.9 0 0 266.7375 380.8925
  A 6.22 5.88 -2.9 0 0 272.6520 374.7053"
/>
<path stroke="#808080" vector-effect="non-scaling-stroke" d="
  M 301.56 369.69
  Q 299.75 368.53 295.47 369.02
  Q 295.00 369.08 295.00 369.55
  L 295.00 375.48
  Q 295.00 375.97 295.49 375.99
  Q 298.06 376.13 300.55 375.55
  C 303.46 374.86 303.95 371.21 301.56 369.69"
/>
</g>
<path fill="#000000" d="
  M 0.00 0.00
  L 500.00 0.00
  L 500.00 500.00
  L 0.00 500.00
  L 0.00 0.00
  Z
  M 179.83 136.96
  C 180.92 145.08 185.08 150.73 189.13 157.71
  C 191.99 162.64 191.36 168.92 189.96 174.17
  Q 188.75 178.67 188.91 180.03
  C 189.47 184.88 194.19 183.36 197.65 184.22
  Q 198.29 184.38 198.17 185.03
  Q 196.96 191.52 202.51 194.17
  Q 203.01 194.42 203.05 194.97
  C 203.35 199.22 206.55 200.28 210.44 201.19
  Q 210.96 201.31 211.00 201.84
  C 211.73 210.73 220.37 212.43 226.43 207.64
  C 231.33 203.76 236.64 198.01 242.95 196.95
  Q 243.51 196.86 243.61 197.42
  Q 247.09 216.00 264.03 221.85
  C 269.91 223.88 277.93 223.00 284.31 222.99
  C 293.41 222.96 300.11 228.28 303.24 236.76
  Q 303.43 237.27 303.88 237.57
  L 304.74 238.15
  A 0.84 0.84 0.0 0 0 306.04 237.47
  Q 306.11 233.86 304.35 231.08
  Q 295.99 217.86 280.01 219.68
  Q 254.80 222.56 247.47 199.33
  C 246.84 197.33 247.27 193.81 247.60 191.69
  Q 248.97 182.80 248.18 178.30
  C 245.90 165.33 231.17 166.36 224.23 156.73
  C 219.89 150.70 215.78 145.41 207.85 145.02
  C 202.36 144.74 194.46 144.80 190.95 140.31
  Q 186.92 135.15 184.50 129.66
  A 3.55 3.54 38.8 0 1 184.27 127.57
  C 192.50 85.70 237.05 75.36 269.30 96.09
  C 286.37 107.05 291.99 120.03 296.25 139.11
  A 1.05 1.05 0.0 0 0 298.01 139.63
  Q 299.34 138.35 299.06 136.75
  C 296.51 122.22 290.67 108.75 279.11 99.15
  Q 255.23 79.31 225.56 83.31
  C 201.07 86.61 184.56 103.55 180.76 127.83
  Q 180.68 128.33 180.35 128.71
  C 172.07 138.24 164.45 151.74 167.86 164.45
  Q 168.02 165.04 171.15 172.29
  C 174.00 178.89 174.66 184.57 173.31 191.67
  Q 171.80 199.54 175.06 206.67
  C 178.05 213.22 185.71 217.44 183.90 225.68
  C 182.95 230.01 180.16 233.93 181.22 238.75
  Q 182.52 244.64 182.86 249.06
  Q 182.90 249.63 183.45 249.78
  L 185.23 250.27
  Q 185.85 250.44 185.90 249.80
  C 186.43 243.81 183.19 236.80 185.88 231.23
  C 193.20 216.07 177.59 211.56 176.15 198.70
  C 175.85 196.02 176.68 193.66 177.31 191.07
  C 178.85 184.71 177.50 177.82 174.90 171.90
  C 173.48 168.64 171.74 165.20 171.20 161.86
  C 169.69 152.37 173.72 144.46 178.69 136.71
  Q 179.60 135.28 179.83 136.96
  Z
  M 245.60 122.14
  Q 238.02 119.36 230.57 120.14
  C 222.85 120.94 198.58 124.86 193.84 118.46
  C 192.91 117.19 191.79 116.24 190.41 117.52
  A 1.82 1.81 -43.4 0 0 190.33 120.11
  C 194.04 123.99 196.66 124.93 202.35 125.09
  C 214.59 125.42 223.83 123.87 234.66 123.73
  C 238.16 123.69 241.53 124.47 245.03 125.12
  Q 245.70 125.24 245.80 124.57
  L 246.05 122.91
  A 0.70 0.70 0.0 0 0 245.60 122.14
  Z
  M 236.42 140.35
  Q 226.98 137.70 217.19 137.12
  C 205.83 136.45 195.49 134.58 189.83 123.41
  A 0.98 0.98 0.0 0 0 188.75 122.89
  C 187.09 123.23 186.74 124.95 187.47 126.37
  C 193.76 138.62 206.72 140.06 219.45 140.98
  C 225.39 141.41 230.37 142.43 235.82 143.70
  Q 236.43 143.84 236.57 143.24
  L 237.02 141.37
  Q 237.22 140.57 236.42 140.35
  Z
  M 274.88 187.97
  Q 272.26 189.35 271.07 191.99
  Q 270.84 192.52 271.02 193.06
  C 271.66 194.93 272.80 194.71 273.95 193.45
  Q 277.62 189.46 283.10 188.75
  Q 283.63 188.68 283.71 189.21
  L 284.04 191.38
  Q 284.13 192.01 284.76 192.01
  C 289.89 191.99 296.38 192.60 300.83 191.10
  C 308.18 188.62 313.93 180.21 318.96 174.47
  Q 319.30 174.09 319.80 174.07
  Q 326.22 173.89 332.62 173.39
  C 338.22 172.94 345.77 173.20 352.37 172.03
  Q 353.02 171.91 353.01 171.25
  L 352.98 169.48
  Q 352.97 168.92 352.41 168.95
  L 320.46 170.65
  Q 320.00 170.68 320.00 170.22
  L 320.00 167.56
  Q 320.00 166.88 319.32 166.85
  L 317.43 166.78
  Q 316.61 166.75 316.62 167.57
  L 316.65 170.59
  Q 316.65 171.04 316.38 171.40
  C 310.57 179.21 303.74 188.60 294.57 188.52
  Q 294.03 188.51 294.03 187.97
  L 293.99 151.62
  Q 293.99 151.00 293.37 151.00
  L 291.62 151.00
  Q 291.00 151.00 291.00 151.62
  L 291.00 188.09
  Q 291.00 188.68 290.41 188.70
  L 287.65 188.77
  Q 287.00 188.79 287.00 188.14
  L 287.00 145.98
  Q 287.00 145.36 287.62 145.36
  C 293.96 145.37 300.41 144.72 305.15 149.60
  Q 311.00 155.64 316.42 162.08
  C 318.03 163.98 333.83 163.97 335.51 164.01
  C 340.99 164.14 346.60 164.83 352.19 164.86
  Q 352.78 164.86 352.92 164.28
  Q 353.59 161.54 351.23 161.41
  Q 335.47 160.53 319.57 159.78
  Q 319.06 159.76 318.75 159.36
  Q 313.51 152.54 307.36 146.56
  C 300.90 140.27 292.46 141.99 284.61 142.00
  Q 284.13 142.01 284.05 142.48
  L 283.71 144.45
  Q 283.64 144.91 283.18 144.93
  Q 274.88 145.43 268.46 140.45
  Q 267.91 140.03 267.53 140.61
  Q 266.57 142.08 267.23 143.78
  Q 267.39 144.18 267.78 144.38
  L 269.45 145.25
  Q 270.87 146.00 269.27 146.00
  L 260.03 146.01
  A 2.03 2.02 -0.0 0 0 258.00 148.03
  L 258.00 157.22
  Q 258.00 157.79 258.44 158.13
  L 260.88 160.06
  Q 261.34 160.42 260.89 160.80
  L 258.43 162.87
  Q 258.00 163.23 258.00 163.79
  L 258.00 177.09
  Q 258.00 177.77 258.65 177.95
  L 259.46 178.18
  Q 260.50 178.47 259.60 179.06
  L 258.50 179.79
  Q 258.06 180.08 258.06 180.61
  L 257.97 186.70
  Q 257.96 187.50 258.76 187.50
  L 274.76 187.50
  Q 275.77 187.50 274.88 187.97
  Z
  M 145.46 316.19
  C 147.83 321.01 151.65 329.42 142.44 330.34
  Q 138.88 330.70 142.50 330.81
  Q 153.88 331.15 165.28 330.96
  Q 167.08 330.93 165.37 330.35
  Q 161.13 328.91 159.87 326.02
  Q 153.02 310.21 135.78 265.26
  Q 135.54 264.64 134.98 265.00
  L 125.91 270.92
  Q 125.43 271.24 125.48 271.81
  Q 125.63 273.49 125.21 274.48
  Q 119.01 289.29 104.40 322.41
  Q 101.78 328.36 97.06 330.67
  Q 96.80 330.80 97.09 330.82
  Q 104.70 331.25 112.29 330.82
  Q 114.99 330.66 112.32 330.22
  Q 109.86 329.81 107.71 328.55
  Q 107.24 328.27 107.01 327.77
  C 105.41 324.41 107.89 319.12 109.51 316.18
  Q 109.75 315.75 110.25 315.75
  L 144.75 315.75
  Q 145.24 315.75 145.46 316.19
  Z
  M 314.94 316.17
  Q 317.67 321.80 317.71 325.68
  C 317.75 329.45 314.95 329.51 312.44 330.40
  Q 311.44 330.75 312.50 330.80
  Q 323.51 331.25 334.52 330.84
  A 0.41 0.41 0.0 0 0 334.57 330.02
  C 329.53 329.23 326.18 318.81 324.46 314.48
  Q 314.71 289.91 305.20 265.22
  Q 304.99 264.68 304.50 265.00
  L 295.85 270.64
  Q 295.38 270.95 295.32 271.51
  C 295.16 273.00 294.92 273.96 294.33 275.35
  Q 283.68 300.21 272.78 324.98
  Q 271.34 328.24 266.65 330.40
  Q 265.48 330.94 266.76 330.95
  L 282.35 331.02
  A 0.29 0.29 0.0 0 0 282.41 330.44
  C 272.68 328.33 275.71 322.58 279.01 316.23
  Q 279.25 315.75 279.79 315.75
  L 314.28 315.75
  Q 314.74 315.75 314.94 316.17
  Z
  M 355.28 283.70
  C 355.83 309.76 400.93 296.85 393.94 321.63
  C 392.98 325.05 390.60 328.31 387.26 329.27
  C 374.89 332.81 360.96 325.60 361.47 311.56
  Q 361.51 310.38 360.88 311.38
  L 353.66 322.92
  Q 353.24 323.59 353.87 324.07
  Q 363.72 331.61 375.63 331.92
  C 385.45 332.18 397.77 329.17 401.07 318.52
  C 405.18 305.25 394.97 297.71 383.66 294.92
  C 374.11 292.56 361.71 289.73 362.88 277.12
  C 363.35 271.92 366.37 267.99 371.66 267.40
  Q 386.74 265.71 392.01 279.03
  C 392.79 281.00 392.62 283.71 392.75 285.89
  Q 392.79 286.73 393.24 286.02
  L 400.68 274.18
  Q 401.03 273.62 400.52 273.21
  Q 387.52 262.61 370.00 266.54
  C 361.21 268.52 355.08 274.43 355.28 283.70
  Z
  M 217.68 324.35
  Q 217.28 325.25 216.92 324.34
  Q 207.60 301.13 198.55 278.62
  C 196.77 274.19 195.98 267.82 202.53 267.82
  Q 202.64 267.82 202.68 267.72
  Q 202.74 267.54 202.80 267.35
  Q 202.87 267.11 202.63 267.11
  L 183.00 266.95
  Q 182.02 266.94 182.61 267.72
  C 183.91 269.41 185.09 270.89 185.90 272.82
  Q 198.34 302.79 210.16 333.01
  Q 210.34 333.47 210.75 333.20
  C 213.73 331.24 217.94 328.90 219.41 325.48
  Q 229.03 303.11 238.68 280.76
  C 241.57 274.06 242.72 270.47 247.98 267.40
  Q 248.36 267.18 247.92 267.16
  Q 240.23 266.82 232.54 267.09
  Q 231.33 267.13 232.48 267.52
  L 237.29 269.14
  Q 237.75 269.29 237.99 269.71
  Q 239.87 272.94 238.33 276.53
  Q 227.94 300.76 217.68 324.35
  Z
  M 179.36 379.35
  C 166.28 387.40 163.76 363.21 179.57 370.58
  Q 180.10 370.82 180.49 370.39
  L 181.45 369.31
  Q 181.93 368.79 181.35 368.37
  Q 176.54 364.85 171.48 366.44
  C 157.81 370.73 167.35 390.44 180.79 382.05
  Q 181.94 381.33 181.00 379.75
  A 1.18 1.18 0.0 0 0 179.36 379.35
  Z
  M 215.2899 375.0517
  A 9.88 9.07 0.3 0 0 205.4575 365.9301
  A 9.88 9.07 0.3 0 0 195.5301 374.9483
  A 9.88 9.07 0.3 0 0 205.3625 384.0699
  A 9.88 9.07 0.3 0 0 215.2899 375.0517
  Z
  M 234.35 381.20
  A 0.60 0.60 0.0 0 1 233.75 380.60
  L 233.75 366.60
  A 0.60 0.60 0.0 0 0 233.15 366.00
  L 231.08 366.00
  A 0.60 0.60 0.0 0 0 230.48 366.60
  L 230.49 383.40
  A 0.60 0.60 0.0 0 0 231.09 384.00
  L 242.90 384.00
  A 0.60 0.60 0.0 0 0 243.50 383.40
  L 243.50 381.88
  A 0.60 0.60 0.0 0 0 242.90 381.28
  L 234.35 381.20
  Z
  M 276.3095 375.1134
  A 9.87 9.06 0.6 0 0 266.5349 365.9505
  A 9.87 9.06 0.6 0 0 256.5705 374.9066
  A 9.87 9.06 0.6 0 0 266.3451 384.0695
  A 9.87 9.06 0.6 0 0 276.3095 375.1134
  Z
  M 299.97 379.20
  C 301.41 381.50 302.90 385.13 306.32 383.75
  Q 306.89 383.52 306.51 383.03
  L 303.27 378.81
  Q 302.92 378.36 303.40 378.06
  C 306.64 376.01 307.70 372.33 305.79 369.00
  C 303.69 365.36 296.37 365.67 291.75 366.20
  Q 291.21 366.26 291.21 366.81
  L 291.34 383.30
  Q 291.34 384.02 292.05 384.01
  L 294.12 383.98
  Q 294.72 383.98 294.74 383.38
  L 294.86 379.31
  Q 294.88 378.75 295.44 378.75
  L 299.16 378.75
  Q 299.69 378.75 299.97 379.20
  Z
  M 322.39 374.41
  C 324.68 375.61 332.64 376.73 331.36 379.98
  Q 331.15 380.50 330.61 380.66
  Q 326.16 381.96 322.25 379.44
  Q 321.74 379.11 321.51 379.67
  L 320.77 381.43
  Q 320.55 381.97 321.06 382.25
  C 324.73 384.24 335.17 385.47 335.25 378.99
  C 335.33 372.77 321.17 374.06 325.19 369.68
  Q 325.55 369.29 326.08 369.19
  Q 329.61 368.57 332.93 369.88
  Q 333.56 370.12 333.78 369.49
  L 334.27 368.09
  Q 334.48 367.47 333.87 367.21
  C 329.01 365.18 319.54 365.18 321.42 373.16
  Q 321.62 374.01 322.39 374.41
  Z"
/>
<path fill="#ffffff" d="
  M 179.83 136.96
  Q 179.60 135.28 178.69 136.71
  C 173.72 144.46 169.69 152.37 171.20 161.86
  C 171.74 165.20 173.48 168.64 174.90 171.90
  C 177.50 177.82 178.85 184.71 177.31 191.07
  C 176.68 193.66 175.85 196.02 176.15 198.70
  C 177.59 211.56 193.20 216.07 185.88 231.23
  C 183.19 236.80 186.43 243.81 185.90 249.80
  Q 185.85 250.44 185.23 250.27
  L 183.45 249.78
  Q 182.90 249.63 182.86 249.06
  Q 182.52 244.64 181.22 238.75
  C 180.16 233.93 182.95 230.01 183.90 225.68
  C 185.71 217.44 178.05 213.22 175.06 206.67
  Q 171.80 199.54 173.31 191.67
  C 174.66 184.57 174.00 178.89 171.15 172.29
  Q 168.02 165.04 167.86 164.45
  C 164.45 151.74 172.07 138.24 180.35 128.71
  Q 180.68 128.33 180.76 127.83
  C 184.56 103.55 201.07 86.61 225.56 83.31
  Q 255.23 79.31 279.11 99.15
  C 290.67 108.75 296.51 122.22 299.06 136.75
  Q 299.34 138.35 298.01 139.63
  A 1.05 1.05 0.0 0 1 296.25 139.11
  C 291.99 120.03 286.37 107.05 269.30 96.09
  C 237.05 75.36 192.50 85.70 184.27 127.57
  A 3.55 3.54 38.8 0 0 184.50 129.66
  Q 186.92 135.15 190.95 140.31
  C 194.46 144.80 202.36 144.74 207.85 145.02
  C 215.78 145.41 219.89 150.70 224.23 156.73
  C 231.17 166.36 245.90 165.33 248.18 178.30
  Q 248.97 182.80 247.60 191.69
  C 247.27 193.81 246.84 197.33 247.47 199.33
  Q 254.80 222.56 280.01 219.68
  Q 295.99 217.86 304.35 231.08
  Q 306.11 233.86 306.04 237.47
  A 0.84 0.84 0.0 0 1 304.74 238.15
  L 303.88 237.57
  Q 303.43 237.27 303.24 236.76
  C 300.11 228.28 293.41 222.96 284.31 222.99
  C 277.93 223.00 269.91 223.88 264.03 221.85
  Q 247.09 216.00 243.61 197.42
  Q 243.51 196.86 242.95 196.95
  C 236.64 198.01 231.33 203.76 226.43 207.64
  C 220.37 212.43 211.73 210.73 211.00 201.84
  Q 210.96 201.31 210.44 201.19
  C 206.55 200.28 203.35 199.22 203.05 194.97
  Q 203.01 194.42 202.51 194.17
  Q 196.96 191.52 198.17 185.03
  Q 198.29 184.38 197.65 184.22
  C 194.19 183.36 189.47 184.88 188.91 180.03
  Q 188.75 178.67 189.96 174.17
  C 191.36 168.92 191.99 162.64 189.13 157.71
  C 185.08 150.73 180.92 145.08 179.83 136.96
  Z
  M 201.03 181.56
  Q 200.76 185.78 202.27 189.68
  Q 202.44 190.12 202.88 190.32
  L 206.37 191.85
  Q 206.92 192.09 206.94 192.69
  L 207.03 195.52
  Q 207.04 196.04 207.50 196.27
  C 211.19 198.10 215.69 197.86 215.06 203.62
  Q 215.00 204.14 215.31 204.57
  C 217.89 208.24 222.54 206.24 225.12 203.96
  C 230.52 199.23 235.88 194.39 243.32 193.39
  Q 243.79 193.32 243.85 192.85
  C 244.89 184.63 247.51 176.32 239.09 170.82
  C 234.62 167.89 229.78 166.30 225.68 163.24
  C 220.83 159.62 218.73 152.96 213.57 150.25
  C 209.15 147.93 203.83 148.19 198.97 147.73
  C 191.10 146.98 187.21 142.65 183.67 135.79
  Q 183.28 135.04 183.09 135.87
  C 182.04 140.36 188.90 151.59 191.60 155.29
  C 195.95 161.26 194.40 171.91 191.94 178.42
  A 1.35 1.34 21.2 0 0 192.71 180.15
  Q 196.30 181.56 200.05 180.72
  A 0.81 0.80 85.5 0 1 201.03 181.56
  Z"
/>
<path fill="#ffffff" d="
  M 245.60 122.14
  A 0.70 0.70 0.0 0 1 246.05 122.91
  L 245.80 124.57
  Q 245.70 125.24 245.03 125.12
  C 241.53 124.47 238.16 123.69 234.66 123.73
  C 223.83 123.87 214.59 125.42 202.35 125.09
  C 196.66 124.93 194.04 123.99 190.33 120.11
  A 1.82 1.81 -43.4 0 1 190.41 117.52
  C 191.79 116.24 192.91 117.19 193.84 118.46
  C 198.58 124.86 222.85 120.94 230.57 120.14
  Q 238.02 119.36 245.60 122.14
  Z"
/>
<path fill="#ffffff" d="
  M 237.02 141.37
  L 236.57 143.24
  Q 236.43 143.84 235.82 143.70
  C 230.37 142.43 225.39 141.41 219.45 140.98
  C 206.72 140.06 193.76 138.62 187.47 126.37
  C 186.74 124.95 187.09 123.23 188.75 122.89
  A 0.98 0.98 0.0 0 1 189.83 123.41
  C 195.49 134.58 205.83 136.45 217.19 137.12
  Q 226.98 137.70 236.42 140.35
  Q 237.22 140.57 237.02 141.37
  Z"
/>
<path fill="#000000" d="
  M 201.03 181.56
  A 0.81 0.80 85.5 0 0 200.05 180.72
  Q 196.30 181.56 192.71 180.15
  A 1.35 1.34 21.2 0 1 191.94 178.42
  C 194.40 171.91 195.95 161.26 191.60 155.29
  C 188.90 151.59 182.04 140.36 183.09 135.87
  Q 183.28 135.04 183.67 135.79
  C 187.21 142.65 191.10 146.98 198.97 147.73
  C 203.83 148.19 209.15 147.93 213.57 150.25
  C 218.73 152.96 220.83 159.62 225.68 163.24
  C 229.78 166.30 234.62 167.89 239.09 170.82
  C 247.51 176.32 244.89 184.63 243.85 192.85
  Q 243.79 193.32 243.32 193.39
  C 235.88 194.39 230.52 199.23 225.12 203.96
  C 222.54 206.24 217.89 208.24 215.31 204.57
  Q 215.00 204.14 215.06 203.62
  C 215.69 197.86 211.19 198.10 207.50 196.27
  Q 207.04 196.04 207.03 195.52
  L 206.94 192.69
  Q 206.92 192.09 206.37 191.85
  L 202.88 190.32
  Q 202.44 190.12 202.27 189.68
  Q 200.76 185.78 201.03 181.56
  Z"
/>
<path fill="#ffffff" d="
  M 274.76 187.50
  L 258.76 187.50
  Q 257.96 187.50 257.97 186.70
  L 258.06 180.61
  Q 258.06 180.08 258.50 179.79
  L 259.60 179.06
  Q 260.50 178.47 259.46 178.18
  L 258.65 177.95
  Q 258.00 177.77 258.00 177.09
  L 258.00 163.79
  Q 258.00 163.23 258.43 162.87
  L 260.89 160.80
  Q 261.34 160.42 260.88 160.06
  L 258.44 158.13
  Q 258.00 157.79 258.00 157.22
  L 258.00 148.03
  A 2.03 2.02 -0.0 0 1 260.03 146.01
  L 269.27 146.00
  Q 270.87 146.00 269.45 145.25
  L 267.78 144.38
  Q 267.39 144.18 267.23 143.78
  Q 266.57 142.08 267.53 140.61
  Q 267.91 140.03 268.46 140.45
  Q 274.88 145.43 283.18 144.93
  Q 283.64 144.91 283.71 144.45
  L 284.05 142.48
  Q 284.13 142.01 284.61 142.00
  C 292.46 141.99 300.90 140.27 307.36 146.56
  Q 313.51 152.54 318.75 159.36
  Q 319.06 159.76 319.57 159.78
  Q 335.47 160.53 351.23 161.41
  Q 353.59 161.54 352.92 164.28
  Q 352.78 164.86 352.19 164.86
  C 346.60 164.83 340.99 164.14 335.51 164.01
  C 333.83 163.97 318.03 163.98 316.42 162.08
  Q 311.00 155.64 305.15 149.60
  C 300.41 144.72 293.96 145.37 287.62 145.36
  Q 287.00 145.36 287.00 145.98
  L 287.00 188.14
  Q 287.00 188.79 287.65 188.77
  L 290.41 188.70
  Q 291.00 188.68 291.00 188.09
  L 291.00 151.62
  Q 291.00 151.00 291.62 151.00
  L 293.37 151.00
  Q 293.99 151.00 293.99 151.62
  L 294.03 187.97
  Q 294.03 188.51 294.57 188.52
  C 303.74 188.60 310.57 179.21 316.38 171.40
  Q 316.65 171.04 316.65 170.59
  L 316.62 167.57
  Q 316.61 166.75 317.43 166.78
  L 319.32 166.85
  Q 320.00 166.88 320.00 167.56
  L 320.00 170.22
  Q 320.00 170.68 320.46 170.65
  L 352.41 168.95
  Q 352.97 168.92 352.98 169.48
  L 353.01 171.25
  Q 353.02 171.91 352.37 172.03
  C 345.77 173.20 338.22 172.94 332.62 173.39
  Q 326.22 173.89 319.80 174.07
  Q 319.30 174.09 318.96 174.47
  C 313.93 180.21 308.18 188.62 300.83 191.10
  C 296.38 192.60 289.89 191.99 284.76 192.01
  Q 284.13 192.01 284.04 191.38
  L 283.71 189.21
  Q 283.63 188.68 283.10 188.75
  Q 277.62 189.46 273.95 193.45
  C 272.80 194.71 271.66 194.93 271.02 193.06
  Q 270.84 192.52 271.07 191.99
  Q 272.26 189.35 274.88 187.97
  Q 275.77 187.50 274.76 187.50
  Z
  M 277.07 159.79
  L 277.11 161.24
  Q 277.13 161.96 276.41 162.02
  C 272.13 162.37 264.88 160.83 261.42 165.15
  Q 261.01 165.66 261.03 166.31
  L 261.35 174.99
  Q 261.37 175.62 261.95 175.88
  C 264.56 177.05 271.10 176.34 271.79 178.52
  A 1.01 1.01 0.0 0 1 270.96 179.82
  C 268.02 180.22 263.19 179.66 261.24 182.42
  A 1.00 1.00 0.0 0 0 262.05 184.00
  L 283.37 184.00
  Q 284.00 184.00 284.00 183.38
  L 284.00 150.62
  Q 284.00 150.00 283.38 150.00
  L 261.79 150.00
  Q 261.39 150.00 261.30 150.39
  C 258.66 161.32 270.61 158.74 276.40 159.08
  Q 277.06 159.12 277.07 159.79
  Z"
/>
<path fill="#000000" d="
  M 276.40 159.08
  C 270.61 158.74 258.66 161.32 261.30 150.39
  Q 261.39 150.00 261.79 150.00
  L 283.38 150.00
  Q 284.00 150.00 284.00 150.62
  L 284.00 183.38
  Q 284.00 184.00 283.37 184.00
  L 262.05 184.00
  A 1.00 1.00 0.0 0 1 261.24 182.42
  C 263.19 179.66 268.02 180.22 270.96 179.82
  A 1.01 1.01 0.0 0 0 271.79 178.52
  C 271.10 176.34 264.56 177.05 261.95 175.88
  Q 261.37 175.62 261.35 174.99
  L 261.03 166.31
  Q 261.01 165.66 261.42 165.15
  C 264.88 160.83 272.13 162.37 276.41 162.02
  Q 277.13 161.96 277.11 161.24
  L 277.07 159.79
  Q 277.06 159.12 276.40 159.08
  Z"
/>
<path fill="#ffffff" d="
  M 142.44 330.34
  C 151.65 329.42 147.83 321.01 145.46 316.19
  Q 145.24 315.75 144.75 315.75
  L 110.25 315.75
  Q 109.75 315.75 109.51 316.18
  C 107.89 319.12 105.41 324.41 107.01 327.77
  Q 107.24 328.27 107.71 328.55
  Q 109.86 329.81 112.32 330.22
  Q 114.99 330.66 112.29 330.82
  Q 104.70 331.25 97.09 330.82
  Q 96.80 330.80 97.06 330.67
  Q 101.78 328.36 104.40 322.41
  Q 119.01 289.29 125.21 274.48
  Q 125.63 273.49 125.48 271.81
  Q 125.43 271.24 125.91 270.92
  L 134.98 265.00
  Q 135.54 264.64 135.78 265.26
  Q 153.02 310.21 159.87 326.02
  Q 161.13 328.91 165.37 330.35
  Q 167.08 330.93 165.28 330.96
  Q 153.88 331.15 142.50 330.81
  Q 138.88 330.70 142.44 330.34
  Z
  M 110.68 313.23
  A 0.41 0.41 0.0 0 0 111.05 313.80
  L 144.08 314.20
  A 0.41 0.41 0.0 0 0 144.46 313.64
  L 128.43 273.76
  A 0.41 0.41 0.0 0 0 127.68 273.75
  L 110.68 313.23
  Z"
/>
<path fill="#ffffff" d="
  M 314.28 315.75
  L 279.79 315.75
  Q 279.25 315.75 279.01 316.23
  C 275.71 322.58 272.68 328.33 282.41 330.44
  A 0.29 0.29 0.0 0 1 282.35 331.02
  L 266.76 330.95
  Q 265.48 330.94 266.65 330.40
  Q 271.34 328.24 272.78 324.98
  Q 283.68 300.21 294.33 275.35
  C 294.92 273.96 295.16 273.00 295.32 271.51
  Q 295.38 270.95 295.85 270.64
  L 304.50 265.00
  Q 304.99 264.68 305.20 265.22
  Q 314.71 289.91 324.46 314.48
  C 326.18 318.81 329.53 329.23 334.57 330.02
  A 0.41 0.41 0.0 0 1 334.52 330.84
  Q 323.51 331.25 312.50 330.80
  Q 311.44 330.75 312.44 330.40
  C 314.95 329.51 317.75 329.45 317.71 325.68
  Q 317.67 321.80 314.94 316.17
  Q 314.74 315.75 314.28 315.75
  Z
  M 280.13 313.33
  A 0.34 0.34 0.0 0 0 280.44 313.80
  L 313.69 314.21
  A 0.34 0.34 0.0 0 0 314.01 313.74
  L 297.87 273.68
  A 0.34 0.34 0.0 0 0 297.24 273.67
  L 280.13 313.33
  Z"
/>
<path fill="#ffffff" d="
  M 393.94 321.63
  C 400.93 296.85 355.83 309.76 355.28 283.70
  C 355.08 274.43 361.21 268.52 370.00 266.54
  Q 387.52 262.61 400.52 273.21
  Q 401.03 273.62 400.68 274.18
  L 393.24 286.02
  Q 392.79 286.73 392.75 285.89
  C 392.62 283.71 392.79 281.00 392.01 279.03
  Q 386.74 265.71 371.66 267.40
  C 366.37 267.99 363.35 271.92 362.88 277.12
  C 361.71 289.73 374.11 292.56 383.66 294.92
  C 394.97 297.71 405.18 305.25 401.07 318.52
  C 397.77 329.17 385.45 332.18 375.63 331.92
  Q 363.72 331.61 353.87 324.07
  Q 353.24 323.59 353.66 322.92
  L 360.88 311.38
  Q 361.51 310.38 361.47 311.56
  C 360.96 325.60 374.89 332.81 387.26 329.27
  C 390.60 328.31 392.98 325.05 393.94 321.63
  Z"
/>
<path fill="#ffffff" d="
  M 217.68 324.35
  Q 227.94 300.76 238.33 276.53
  Q 239.87 272.94 237.99 269.71
  Q 237.75 269.29 237.29 269.14
  L 232.48 267.52
  Q 231.33 267.13 232.54 267.09
  Q 240.23 266.82 247.92 267.16
  Q 248.36 267.18 247.98 267.40
  C 242.72 270.47 241.57 274.06 238.68 280.76
  Q 229.03 303.11 219.41 325.48
  C 217.94 328.90 213.73 331.24 210.75 333.20
  Q 210.34 333.47 210.16 333.01
  Q 198.34 302.79 185.90 272.82
  C 185.09 270.89 183.91 269.41 182.61 267.72
  Q 182.02 266.94 183.00 266.95
  L 202.63 267.11
  Q 202.87 267.11 202.80 267.35
  Q 202.74 267.54 202.68 267.72
  Q 202.64 267.82 202.53 267.82
  C 195.98 267.82 196.77 274.19 198.55 278.62
  Q 207.60 301.13 216.92 324.34
  Q 217.28 325.25 217.68 324.35
  Z"
/>
<path fill="#000000" d="
  M 280.13 313.33
  L 297.24 273.67
  A 0.34 0.34 0.0 0 1 297.87 273.68
  L 314.01 313.74
  A 0.34 0.34 0.0 0 1 313.69 314.21
  L 280.44 313.80
  A 0.34 0.34 0.0 0 1 280.13 313.33
  Z"
/>
<path fill="#000000" d="
  M 110.68 313.23
  L 127.68 273.75
  A 0.41 0.41 0.0 0 1 128.43 273.76
  L 144.46 313.64
  A 0.41 0.41 0.0 0 1 144.08 314.20
  L 111.05 313.80
  A 0.41 0.41 0.0 0 1 110.68 313.23
  Z"
/>
<path fill="#ffffff" d="
  M 179.57 370.58
  C 163.76 363.21 166.28 387.40 179.36 379.35
  A 1.18 1.18 0.0 0 1 181.00 379.75
  Q 181.94 381.33 180.79 382.05
  C 167.35 390.44 157.81 370.73 171.48 366.44
  Q 176.54 364.85 181.35 368.37
  Q 181.93 368.79 181.45 369.31
  L 180.49 370.39
  Q 180.10 370.82 179.57 370.58
  Z"
/>
<path fill="#ffffff" d="
  M 215.2899 375.0517
  A 9.88 9.07 0.3 0 1 205.3625 384.0699
  A 9.88 9.07 0.3 0 1 195.5301 374.9483
  A 9.88 9.07 0.3 0 1 205.4575 365.9301
  A 9.88 9.07 0.3 0 1 215.2899 375.0517
  Z
  M 211.6545 375.2605
  A 6.22 5.86 2.4 0 0 205.6854 369.1451
  A 6.22 5.86 2.4 0 0 199.2255 374.7395
  A 6.22 5.86 2.4 0 0 205.1946 380.8549
  A 6.22 5.86 2.4 0 0 211.6545 375.2605
  Z"
/>
<path fill="#ffffff" d="
  M 234.35 381.20
  L 242.90 381.28
  A 0.60 0.60 0.0 0 1 243.50 381.88
  L 243.50 383.40
  A 0.60 0.60 0.0 0 1 242.90 384.00
  L 231.09 384.00
  A 0.60 0.60 0.0 0 1 230.49 383.40
  L 230.48 366.60
  A 0.60 0.60 0.0 0 1 231.08 366.00
  L 233.15 366.00
  A 0.60 0.60 0.0 0 1 233.75 366.60
  L 233.75 380.60
  A 0.60 0.60 0.0 0 0 234.35 381.20
  Z"
/>
<path fill="#ffffff" d="
  M 276.3095 375.1134
  A 9.87 9.06 0.6 0 1 266.3451 384.0695
  A 9.87 9.06 0.6 0 1 256.5705 374.9066
  A 9.87 9.06 0.6 0 1 266.5349 365.9505
  A 9.87 9.06 0.6 0 1 276.3095 375.1134
  Z
  M 272.6520 374.7053
  A 6.22 5.88 -2.9 0 0 266.1425 369.1475
  A 6.22 5.88 -2.9 0 0 260.2280 375.3347
  A 6.22 5.88 -2.9 0 0 266.7375 380.8925
  A 6.22 5.88 -2.9 0 0 272.6520 374.7053
  Z"
/>
<path fill="#ffffff" d="
  M 299.16 378.75
  L 295.44 378.75
  Q 294.88 378.75 294.86 379.31
  L 294.74 383.38
  Q 294.72 383.98 294.12 383.98
  L 292.05 384.01
  Q 291.34 384.02 291.34 383.30
  L 291.21 366.81
  Q 291.21 366.26 291.75 366.20
  C 296.37 365.67 303.69 365.36 305.79 369.00
  C 307.70 372.33 306.64 376.01 303.40 378.06
  Q 302.92 378.36 303.27 378.81
  L 306.51 383.03
  Q 306.89 383.52 306.32 383.75
  C 302.90 385.13 301.41 381.50 299.97 379.20
  Q 299.69 378.75 299.16 378.75
  Z
  M 301.56 369.69
  Q 299.75 368.53 295.47 369.02
  Q 295.00 369.08 295.00 369.55
  L 295.00 375.48
  Q 295.00 375.97 295.49 375.99
  Q 298.06 376.13 300.55 375.55
  C 303.46 374.86 303.95 371.21 301.56 369.69
  Z"
/>
<path fill="#ffffff" d="
  M 322.39 374.41
  Q 321.62 374.01 321.42 373.16
  C 319.54 365.18 329.01 365.18 333.87 367.21
  Q 334.48 367.47 334.27 368.09
  L 333.78 369.49
  Q 333.56 370.12 332.93 369.88
  Q 329.61 368.57 326.08 369.19
  Q 325.55 369.29 325.19 369.68
  C 321.17 374.06 335.33 372.77 335.25 378.99
  C 335.17 385.47 324.73 384.24 321.06 382.25
  Q 320.55 381.97 320.77 381.43
  L 321.51 379.67
  Q 321.74 379.11 322.25 379.44
  Q 326.16 381.96 330.61 380.66
  Q 331.15 380.50 331.36 379.98
  C 332.64 376.73 324.68 375.61 322.39 374.41
  Z"
/>
<path fill="#000000" d="
  M 301.56 369.69
  C 303.95 371.21 303.46 374.86 300.55 375.55
  Q 298.06 376.13 295.49 375.99
  Q 295.00 375.97 295.00 375.48
  L 295.00 369.55
  Q 295.00 369.08 295.47 369.02
  Q 299.75 368.53 301.56 369.69
  Z"
/>
<ellipse fill="#000000" cx="0.00" cy="0.00" transform="translate(205.44,375.00) rotate(2.4)" rx="6.22" ry="5.86"/>
<ellipse fill="#000000" cx="0.00" cy="0.00" transform="translate(266.44,375.02) rotate(-2.9)" rx="6.22" ry="5.88"/>
</svg>
